<svg width="19" height="20" viewBox="0 0 19 20" fill="none" xmlns="http://www.w3.org/2000/svg">
<path d="M13.9763 2.42839C14.1952 2.20952 14.455 2.03591 14.741 1.91745C15.027 1.799 15.3335 1.73804 15.643 1.73804C15.9525 1.73804 16.259 1.799 16.545 1.91745C16.8309 2.03591 17.0908 2.20952 17.3097 2.42839C17.5285 2.64726 17.7021 2.9071 17.8206 3.19307C17.939 3.47903 18 3.78553 18 4.09506C18 4.40459 17.939 4.71109 17.8206 4.99705C17.7021 5.28302 17.5285 5.54286 17.3097 5.76173L6.05965 17.0117L1.47632 18.2617L2.72632 13.6784L13.9763 2.42839Z" stroke="currentColor" stroke-width="2" stroke-linecap="round" stroke-linejoin="round"/>
</svg>
