<svg width="95" height="65" viewBox="0 0 95 65" fill="none" xmlns="http://www.w3.org/2000/svg">
<path d="M7.00476 27.896C7.29699 27.896 7.59018 27.8678 7.88144 27.8096C9.32217 27.5207 10.6173 26.563 11.4357 25.182C11.8085 24.5519 12.0512 23.897 12.2862 23.2636C12.5347 22.5927 12.7697 21.9592 13.1284 21.452C14.0769 20.1117 16.1225 19.57 17.8894 20.1923C19.5418 20.7733 20.9665 22.2408 21.7985 24.2184C22.0286 24.765 22.6587 25.0213 23.2043 24.7917C23.7509 24.5616 24.0072 23.932 23.7776 23.3859C22.7102 20.851 20.8243 18.9486 18.602 18.1666C15.9181 17.2225 12.8813 18.0826 11.3755 20.2117C10.8537 20.9491 10.5585 21.7466 10.2726 22.518C10.062 23.0874 9.86245 23.6252 9.58867 24.0883C9.08771 24.9334 8.29163 25.5383 7.4601 25.7048C6.62226 25.8717 5.72325 25.564 5.27132 24.9557C4.91842 24.4805 4.24562 24.3805 3.76942 24.7349C3.29371 25.0883 3.19468 25.7606 3.54855 26.2368C4.32571 27.2824 5.64363 27.896 7.00476 27.896Z" fill="white"/>
<path d="M37.0309 53.6743C35.7145 55.1311 34.5121 60.3372 34.0534 60.8159C33.5495 61.3411 29.2011 61.2581 28.2555 60.3217C27.4021 59.4766 26.7817 55.3636 27.0414 50.5608L37.0309 53.6743Z" fill="#E8E8E8"/>
<path d="M34.9617 58.3902C34.5617 59.6071 34.2428 60.6183 34.053 60.8163C33.5491 61.3416 29.2007 61.2586 28.2551 60.3222C27.8585 59.9295 27.5139 58.8246 27.2828 57.2786C29.5706 58.63 32.3836 58.9979 34.9617 58.3902Z" fill="#4B4949"/>
<path d="M72.8604 50.6015C71.1109 53.9257 67.612 57.7746 66.7372 62.4978C66.7372 62.4978 60.1903 64.2312 58.8525 62.6725C57.5147 61.1143 59.4646 55.2635 56.9399 54.9747C53.3827 54.5679 54.3157 62.8473 54.3157 62.8473C54.3157 62.8473 49.7989 66.9642 44.3315 63.722C42.3942 61.5381 43.8184 58.1236 42.5942 56.8989C36.7414 57.129 26.6519 55.5179 24.9248 53.5747C24.0501 54.7995 25.0995 59.3479 23.7001 60.5726C22.3006 61.7973 18.9764 61.6221 17.4017 60.5726C15.827 59.5231 9.52909 38.0043 16.8769 23.8338C24.2248 9.66285 63.9378 14.2118 63.9378 14.2118L72.8604 50.6015Z" fill="white"/>
<path d="M53.0351 46.8671C53.3856 47.5685 53.0487 48.7277 52.6235 49.8966C47.2154 51.7228 40.5068 50.983 37.171 47.1705C35.755 45.304 41.0869 43.6706 42.1602 42.5968C47.528 39.9129 49.2774 43.6463 53.0351 46.8671Z" fill="#4B4949"/>
<path d="M16.8779 23.8341C19.2429 19.2731 24.9627 16.6533 31.6304 15.1946C33.8503 17.1319 34.6488 20.0401 34.2478 23.2482C34.2478 27.0059 32.1008 30.2267 28.88 32.3737C23.9205 35.4261 18.9609 33.8678 14.1935 31.7475C14.7426 28.9859 15.6003 26.2982 16.8779 23.8341Z" fill="#4B4949"/>
<path d="M32.0983 33.2845C33.8444 30.7069 35.7793 33.7384 39.0001 33.2015C41.3568 32.7302 43.2097 32.8428 43.7092 35.1573C42.3476 36.6907 40.3161 37.3577 38.0045 37.7431C35.3211 38.2795 30.4882 36.5048 32.0983 33.2845Z" fill="#4B4949"/>
<path d="M15.4593 38.2789C20.0155 33.2169 32.1812 38.1901 32.0283 42.1191C31.1108 47.119 24.5683 40.8517 20.6223 43.0958C16.0496 45.7569 12.239 40.9628 15.4593 38.2789Z" fill="#4B4949"/>
<path d="M24.4922 57.7207C24.4461 58.9314 24.2951 60.0527 23.7005 60.5731C22.301 61.7978 18.9768 61.6226 17.4026 60.5731C16.9725 60.2867 16.1914 58.4678 15.4322 55.6956C18.2142 57.2256 21.4083 57.8135 24.4922 57.7207Z" fill="#4B4949"/>
<path d="M54.2112 60.1494C54.1796 61.6285 54.316 62.8484 54.316 62.8484C54.316 62.8484 49.7992 66.9652 44.3319 63.7231C43.4139 62.6882 43.2523 61.3785 43.2042 60.1552C46.6672 61.6863 50.5589 61.5348 54.2112 60.1494Z" fill="#4B4949"/>
<path d="M67.6271 59.5704C67.2397 60.5092 66.9252 61.4825 66.7368 62.4985C66.7368 62.4985 60.1899 64.2319 58.8521 62.6733C58.3128 62.0451 58.3079 60.7189 58.3288 59.3408C61.5059 60.5034 64.4485 60.2665 67.6271 59.5704Z" fill="#4B4949"/>
<path d="M0.929785 19.812C5.50636 20.2547 6.90001 23.2012 4.98938 25.8648C2.55401 29.2598 -1.94878 24.9789 0.929785 19.812Z" fill="#4B4949"/>
<path d="M45.7223 24.196C44.9303 29.5453 36.1766 32.6687 26.1704 31.1723C16.1642 29.6759 8.6947 24.1263 9.48675 18.7769C10.2788 13.4276 19.0325 10.3042 29.0387 11.8006C39.0448 13.297 46.5144 18.8466 45.7223 24.196Z" fill="white"/>
<path d="M45.7451 22.797C43.9199 27.4181 36.0253 30.4683 26.7396 29.82C20.6166 29.3926 15.2482 27.452 11.9083 24.7907C14.8095 27.7926 20.009 30.2508 26.1704 31.1723C36.1766 32.6687 44.9303 29.5453 45.7223 24.196C45.7913 23.7302 45.7976 23.2629 45.7451 22.797Z" fill="black" fill-opacity="0.15"/>
<path d="M58.5864 5.85226C58.5864 5.85226 55.5608 3.51107 52.6007 0C52.6007 0 48.3741 5.4581 50.4619 12.3128L58.5864 5.85226Z" fill="#CC9478"/>
<path d="M46.5903 20.3308C46.5903 20.3308 38.5872 19.6609 38.2741 16.6008C37.9615 13.5407 47.5821 10.7427 51.5679 11.8349L46.5903 20.3308Z" fill="#464646"/>
<path d="M75.1254 6.16514C75.1254 6.16514 79.8878 4.88216 82.9441 1.45459C82.9441 1.45459 85.4236 5.56467 83.0674 12.8489L75.1254 6.16514Z" fill="#CC9478"/>
<path d="M85.768 20.8675C85.768 20.8675 93.7678 21.5801 94.6007 18.619C95.4337 15.6574 86.435 11.2512 82.3215 11.6439L85.768 20.8675Z" fill="#464646"/>
<path d="M68.8429 3.72364C56.3399 2.53047 48.6819 11.6569 44.813 22.3265C39.8389 36.0446 43.0597 52.4864 64.5324 54.0931C86.8526 55.7635 91.8248 38.9702 88.6128 24.3867C86.3308 14.0292 80.7111 4.85613 68.8429 3.72364Z" fill="white"/>
<path d="M66.8543 14.7331C62.6481 17.1432 59.3773 12.0041 55.9789 13.8569C52.5804 15.7098 54.2517 20.1621 49.8315 21.3849C46.7694 22.4115 45.3301 20.9766 45.3301 20.9766C48.8922 12.0371 55.2231 4.4863 64.9665 3.69409C64.8786 4.81154 71.8707 10.974 66.8543 14.7331Z" fill="#4B4949"/>
<path d="M89.4182 34.4763C88.644 45.6764 81.7568 55.3835 64.533 54.0942C50.4426 53.0398 44.2117 45.5973 42.9981 36.7291C50.713 20.0539 84.4708 21.6116 89.4182 34.4763Z" fill="#F6C7C4"/>
<path d="M74.8417 21.0613C74.7621 21.955 75.4218 22.7438 76.3155 22.8234C77.2091 22.903 77.9979 22.2433 78.0775 21.3497C78.1571 20.456 77.4975 19.6672 76.6038 19.5876C75.7101 19.508 74.9213 20.1676 74.8417 21.0613Z" fill="#4B4949"/>
<path d="M81.9683 24.1006C81.8887 24.9943 82.5484 25.7831 83.442 25.8627C84.3357 25.9423 85.1245 25.2826 85.2041 24.389C85.2837 23.4953 84.624 22.7065 83.7304 22.6269C82.8367 22.5473 82.0479 23.207 81.9683 24.1006Z" fill="#F6C7C4"/>
<path d="M47.713 24.5908C47.6334 25.4845 48.2931 26.2733 49.1867 26.3529C50.0804 26.4325 50.8692 25.7729 50.9488 24.8792C51.0284 23.9855 50.3687 23.1967 49.4751 23.1171C48.5814 23.0375 47.7926 23.6972 47.713 24.5908Z" fill="#F6C7C4"/>
<path d="M56.0558 21.5794C55.9761 22.473 56.6358 23.2619 57.5295 23.3415C58.4232 23.4211 59.212 22.7614 59.2916 21.8677C59.3712 20.9741 58.7115 20.1852 57.8178 20.1056C56.9247 20.026 56.1358 20.6857 56.0558 21.5794Z" fill="#4B4949"/>
<path d="M62.3895 43.5103C62.8361 43.5103 63.2633 43.3948 63.6142 43.1667C63.7385 43.0861 63.7735 42.9196 63.6929 42.7953C63.6118 42.671 63.4448 42.6371 63.3215 42.7167C62.8308 43.0356 62.1293 43.0604 61.4895 42.7803C60.7687 42.4643 60.2808 41.8385 60.1507 41.0638C60.126 40.9177 59.9857 40.8211 59.8415 40.8439C59.6954 40.8687 59.5969 41.007 59.6211 41.1531C59.7813 42.1094 60.3837 42.8817 61.274 43.272C61.6371 43.4312 62.0196 43.5103 62.3895 43.5103Z" fill="#E8ACAA"/>
<path d="M52.1886 36.2784C52.1382 36.8459 52.5571 37.3473 53.125 37.3978C53.6925 37.4483 54.1939 37.0293 54.2444 36.4614C54.2949 35.8939 53.876 35.3925 53.308 35.342C52.7406 35.2915 52.2391 35.7109 52.1886 36.2784Z" fill="#E8ACAA"/>
<path d="M79.5602 34.972C79.5097 35.5395 79.9286 36.0409 80.4965 36.0914C81.064 36.1419 81.5654 35.7229 81.6159 35.155C81.6664 34.5875 81.2475 34.0861 80.6796 34.0356C80.1116 33.9851 79.6106 34.4041 79.5602 34.972Z" fill="#E8ACAA"/>
<path d="M81.4747 37.8808C81.5014 37.8808 81.5281 37.8769 81.5548 37.8687C82.6257 37.5328 83.3281 36.7265 83.4815 35.6556C83.6514 34.4722 83.097 33.197 82.1339 32.5543C82.0116 32.4727 81.8451 32.5047 81.7616 32.6285C81.6791 32.7518 81.7131 32.9183 81.8359 33.0008C82.6334 33.5329 83.0912 34.593 82.9504 35.5789C82.8781 36.0833 82.5801 36.9847 81.3946 37.3561C81.2529 37.4007 81.1743 37.5512 81.2184 37.6925C81.2544 37.8075 81.3602 37.8808 81.4747 37.8808Z" fill="#E8ACAA"/>
<path d="M51.8122 38.9842C51.9224 38.9842 52.0262 38.9152 52.0651 38.806C52.1151 38.6667 52.0418 38.5128 51.9024 38.4633C50.9098 38.1094 50.501 36.7556 50.6797 35.6513C50.7515 35.2076 51.1083 33.7567 52.6859 33.7227C52.8345 33.7198 52.9519 33.5969 52.9485 33.4484C52.9456 33.2999 52.8238 33.2033 52.6743 33.1858C51.0913 33.2203 50.3321 34.4377 50.1496 35.5658C49.9389 36.8687 50.4185 38.5041 51.7224 38.9686C51.752 38.9793 51.7826 38.9842 51.8122 38.9842Z" fill="#E8ACAA"/>
</svg>
