<svg width="428" height="103" viewBox="0 0 428 103" fill="none" xmlns="http://www.w3.org/2000/svg">
<rect width="708" height="150" fill="url(#paint0_linear_272_291)"/>
<g filter="url(#filter0_d_272_291)">
<rect width="708" height="33" fill="#B5E5AE"/>
<path d="M30 0H80L50 33.1125H0L30 0Z" fill="#9AD99D"/>
<path d="M125 0H175L145 33.1125H95L125 0Z" fill="#9AD99D"/>
<path d="M220 0H270L240 33.1125H190L220 0Z" fill="#9AD99D"/>
<path d="M315 0H365L335 33.1125H285L315 0Z" fill="#9AD99D"/>
<path d="M410 0H460L430 33.1125H380L410 0Z" fill="#9AD99D"/>
<path d="M505 0H555L525 33.1125H475L505 0Z" fill="#9AD99D"/>
<path d="M600 0H650L620 33.1125H570L600 0Z" fill="#9AD99D"/>
<path d="M695 0H708V33.1125H665L695 0Z" fill="#9AD99D"/>
<rect y="30" width="708" height="3" fill="#46B244"/>
<rect width="708" height="3" fill="#46B244"/>
</g>
<defs>
<filter id="filter0_d_272_291" x="0" y="0" width="708" height="36.1125" filterUnits="userSpaceOnUse" color-interpolation-filters="sRGB">
<feFlood flood-opacity="0" result="BackgroundImageFix"/>
<feColorMatrix in="SourceAlpha" type="matrix" values="0 0 0 0 0 0 0 0 0 0 0 0 0 0 0 0 0 0 127 0" result="hardAlpha"/>
<feOffset dy="3"/>
<feComposite in2="hardAlpha" operator="out"/>
<feColorMatrix type="matrix" values="0 0 0 0 0 0 0 0 0 0 0 0 0 0 0 0 0 0 0.1 0"/>
<feBlend mode="normal" in2="BackgroundImageFix" result="effect1_dropShadow_272_291"/>
<feBlend mode="normal" in="SourceGraphic" in2="effect1_dropShadow_272_291" result="shape"/>
</filter>
<linearGradient id="paint0_linear_272_291" x1="354" y1="0" x2="354" y2="150" gradientUnits="userSpaceOnUse">
<stop stop-color="#E6B998"/>
<stop offset="1" stop-color="#EFD0A1"/>
</linearGradient>
</defs>
</svg>
