<svg width="46" height="36" viewBox="0 0 46 36" fill="none" xmlns="http://www.w3.org/2000/svg">
<path d="M0.696963 19.9501L0.721199 11.2979C0.720391 11.5902 0.912564 11.8825 1.29935 12.1062L1.27513 20.7584C0.889148 20.5347 0.696155 20.2424 0.696963 19.9501Z" fill="#FEF1B2" stroke="#F8DE6A"/>
<path d="M45.4857 15.7695L45.4614 24.4218C45.4606 24.7116 45.2709 25.0023 44.8889 25.2236L44.9131 16.5714C45.2951 16.3501 45.4849 16.0594 45.4857 15.7695Z" fill="#F6EAB6" stroke="#F8DE6A"/>
<path d="M44.9149 16.5732L44.8906 25.2255L28.4009 34.8079L28.4252 26.1557L44.9149 16.5732Z" fill="#F6EAB6" stroke="#F8DE6A"/>
<path d="M25.6448 26.1583L25.6206 34.8105L1.27563 20.7554L1.29986 12.104L25.6448 26.1583Z" fill="#FEF1B2" stroke="#F8DE6A"/>
<path d="M28.423 26.1553L28.3988 34.8075C27.6325 35.2532 26.3849 35.2532 25.6194 34.8107L25.6437 26.1585C26.4092 26.601 27.6567 26.601 28.423 26.1553Z" fill="#F7E7A3" stroke="#F8DE6A"/>
<path d="M44.912 14.965C45.6783 15.4075 45.6823 16.1294 44.916 16.5751L28.4263 26.1575C27.66 26.6033 26.4125 26.6033 25.647 26.1608L1.30283 12.1056C0.53168 11.6599 0.533297 10.9412 1.2996 10.4955L17.7893 0.913067C18.5556 0.467334 19.7967 0.464105 20.5687 0.909839L44.912 14.965Z" fill="#FEF8D6" stroke="#F8DE6A"/>
</svg>
