<svg width="39" height="43" viewBox="0 0 39 43" fill="none" xmlns="http://www.w3.org/2000/svg">
<path d="M28.0954 10.7123C27.8435 10.7123 27.6424 10.6136 27.4921 10.4161C27.3418 10.2186 27.2666 9.9597 27.2666 9.63934C27.2666 9.28828 27.3418 8.95695 27.4921 8.64538C27.6424 8.32942 27.8415 8.07709 28.0893 7.88839C28.3412 7.6953 28.6073 7.59875 28.8876 7.59875C28.9769 7.59875 29.0359 7.6185 29.0643 7.658C29.0968 7.6931 29.1232 7.75893 29.1435 7.85547C29.2288 7.83792 29.3182 7.82914 29.4116 7.82914C29.6107 7.82914 29.7102 7.90594 29.7102 8.05953C29.7102 8.15169 29.6798 8.37111 29.6188 8.71779C29.5254 9.22245 29.4787 9.57352 29.4787 9.771C29.4787 9.83682 29.4929 9.88948 29.5213 9.92898C29.5538 9.96847 29.5945 9.98822 29.6432 9.98822C29.7204 9.98822 29.8138 9.93556 29.9235 9.83024C30.0332 9.72053 30.1815 9.54499 30.3684 9.30363C30.4171 9.2422 30.472 9.21148 30.5329 9.21148C30.5857 9.21148 30.6264 9.23781 30.6548 9.29047C30.6873 9.34313 30.7035 9.41554 30.7035 9.50769C30.7035 9.68323 30.6649 9.81927 30.5878 9.91581C30.4212 10.1396 30.2445 10.3283 30.0576 10.4819C29.8707 10.6355 29.6899 10.7123 29.5152 10.7123C29.3812 10.7123 29.2573 10.664 29.1435 10.5675C29.0338 10.4666 28.9505 10.3305 28.8937 10.1594C28.6824 10.528 28.4163 10.7123 28.0954 10.7123ZM28.3147 10.0475C28.4041 10.0475 28.4894 9.99041 28.5707 9.87632C28.6519 9.76222 28.7108 9.61082 28.7474 9.42212L28.9729 8.21093C28.8023 8.21532 28.6438 8.28553 28.4976 8.42157C28.3554 8.55322 28.2416 8.72876 28.1563 8.94818C28.071 9.1676 28.0283 9.40018 28.0283 9.64593C28.0283 9.78197 28.0527 9.8829 28.1015 9.94872C28.1543 10.0145 28.2254 10.0475 28.3147 10.0475Z" fill="#4E82B5"/>
<path d="M27.6722 9.2115C27.725 9.2115 27.7656 9.23783 27.794 9.29049C27.8265 9.34315 27.8428 9.41556 27.8428 9.50771C27.8428 9.68325 27.8042 9.81929 27.727 9.91583C27.5401 10.1484 27.3472 10.3393 27.1481 10.4885C26.9531 10.6377 26.7297 10.7123 26.4778 10.7123C26.2665 10.7123 26.1182 10.6421 26.0329 10.5017C25.9476 10.3612 25.9049 10.1506 25.9049 9.86975C25.9049 9.75127 25.9151 9.60864 25.9354 9.44189C25.5779 9.44189 25.3301 9.4375 25.192 9.42872C25.1838 9.5516 25.1798 9.63717 25.1798 9.68544V9.82367C25.1757 10.0958 25.1696 10.2866 25.1615 10.3964C25.1534 10.5061 25.129 10.5872 25.0884 10.6399C25.0477 10.6882 24.9807 10.7123 24.8873 10.7123C24.7329 10.7123 24.6232 10.6246 24.5582 10.449C24.4973 10.2735 24.4668 9.99263 24.4668 9.60645C24.4668 9.03596 24.542 8.494 24.6923 7.98056C24.7288 7.8533 24.7877 7.76114 24.869 7.70409C24.9502 7.64266 25.0681 7.61194 25.2224 7.61194C25.3037 7.61194 25.3606 7.62291 25.3931 7.64485C25.4256 7.66679 25.4418 7.70848 25.4418 7.76992C25.4418 7.84013 25.4113 7.99811 25.3504 8.24386C25.3179 8.38868 25.2874 8.56421 25.259 8.77047H26.039C26.0796 8.56421 26.1385 8.30091 26.2157 7.98056C26.2482 7.84891 26.297 7.75456 26.362 7.69751C26.4311 7.64046 26.5326 7.61194 26.6667 7.61194C26.7601 7.61194 26.8251 7.6251 26.8617 7.65143C26.8982 7.67338 26.9165 7.71726 26.9165 7.78308C26.9165 7.89279 26.8657 8.1934 26.7642 8.68489C26.6504 9.2466 26.5936 9.59329 26.5936 9.72494C26.5936 9.80832 26.6098 9.87414 26.6423 9.92241C26.6748 9.9663 26.7175 9.98824 26.7703 9.98824C26.8515 9.98824 26.947 9.93558 27.0567 9.83026C27.1704 9.72055 27.3208 9.54501 27.5076 9.30365C27.5564 9.24222 27.6112 9.2115 27.6722 9.2115Z" fill="#4E82B5"/>
<path d="M22.3415 10.7123C22.0896 10.7123 21.8885 10.6136 21.7382 10.4161C21.5879 10.2186 21.5127 9.9597 21.5127 9.63934C21.5127 9.28828 21.5879 8.95695 21.7382 8.64538C21.8885 8.32942 22.0875 8.07709 22.3354 7.88839C22.5872 7.6953 22.8533 7.59875 23.1337 7.59875C23.223 7.59875 23.2819 7.6185 23.3104 7.658C23.3429 7.6931 23.3693 7.75893 23.3896 7.85547C23.4749 7.83792 23.5643 7.82914 23.6577 7.82914C23.8568 7.82914 23.9563 7.90594 23.9563 8.05953C23.9563 8.15169 23.9259 8.37111 23.8649 8.71779C23.7715 9.22245 23.7248 9.57352 23.7248 9.771C23.7248 9.83682 23.739 9.88948 23.7674 9.92898C23.7999 9.96847 23.8405 9.98822 23.8893 9.98822C23.9665 9.98822 24.0599 9.93556 24.1696 9.83024C24.2793 9.72053 24.4276 9.54499 24.6145 9.30363C24.6632 9.2422 24.7181 9.21148 24.779 9.21148C24.8318 9.21148 24.8724 9.23781 24.9009 9.29047C24.9334 9.34313 24.9496 9.41554 24.9496 9.50769C24.9496 9.68323 24.911 9.81927 24.8338 9.91581C24.6673 10.1396 24.4906 10.3283 24.3037 10.4819C24.1168 10.6355 23.936 10.7123 23.7613 10.7123C23.6273 10.7123 23.5034 10.664 23.3896 10.5675C23.2799 10.4666 23.1966 10.3305 23.1398 10.1594C22.9285 10.528 22.6624 10.7123 22.3415 10.7123ZM22.5608 10.0475C22.6502 10.0475 22.7355 9.99041 22.8168 9.87632C22.898 9.76222 22.9569 9.61082 22.9935 9.42212L23.219 8.21093C23.0483 8.21532 22.8899 8.28553 22.7437 8.42157C22.6015 8.55322 22.4877 8.72876 22.4024 8.94818C22.3171 9.1676 22.2744 9.40018 22.2744 9.64593C22.2744 9.78197 22.2988 9.8829 22.3476 9.94872C22.4004 10.0145 22.4715 10.0475 22.5608 10.0475Z" fill="#4E82B5"/>
<path d="M17.4898 10.7123C17.3354 10.7123 17.2257 10.6246 17.1607 10.449C17.0998 10.2735 17.0693 9.99263 17.0693 9.60645C17.0693 9.03596 17.1445 8.494 17.2948 7.98056C17.3314 7.8533 17.3903 7.76114 17.4715 7.70409C17.5568 7.64266 17.6747 7.61194 17.825 7.61194C17.9062 7.61194 17.9631 7.62291 17.9956 7.64485C18.0281 7.66679 18.0444 7.70848 18.0444 7.76992C18.0444 7.84013 18.0139 7.99811 17.9529 8.24386C17.9123 8.4194 17.8798 8.57299 17.8554 8.70464C17.8311 8.8319 17.8108 8.99208 17.7945 9.18517C17.9042 8.84287 18.0342 8.55324 18.1845 8.31627C18.3389 8.0793 18.4953 7.90376 18.6537 7.78967C18.8162 7.67118 18.9686 7.61194 19.1108 7.61194C19.253 7.61194 19.3525 7.64705 19.4094 7.71726C19.4703 7.78747 19.5008 7.89499 19.5008 8.0398C19.5008 8.18023 19.4622 8.43476 19.385 8.80338C19.3525 8.96136 19.3302 9.07985 19.318 9.15884C19.5211 8.61907 19.7466 8.22631 19.9944 7.98056C20.2422 7.73481 20.4738 7.61194 20.6891 7.61194C20.9532 7.61194 21.0852 7.75456 21.0852 8.0398C21.0852 8.21095 21.0405 8.52033 20.9511 8.96794C20.8739 9.34973 20.8353 9.60206 20.8353 9.72494C20.8353 9.90047 20.8942 9.98824 21.0121 9.98824C21.0933 9.98824 21.1888 9.93558 21.2985 9.83026C21.4122 9.72055 21.5625 9.54501 21.7494 9.30365C21.7982 9.24222 21.853 9.2115 21.914 9.2115C21.9668 9.2115 22.0074 9.23783 22.0358 9.29049C22.0683 9.34315 22.0846 9.41556 22.0846 9.50771C22.0846 9.68325 22.046 9.81929 21.9688 9.91583C21.7941 10.1484 21.6052 10.3393 21.4021 10.4885C21.203 10.6377 20.9755 10.7123 20.7196 10.7123C20.5124 10.7123 20.356 10.6487 20.2503 10.5214C20.1447 10.3898 20.0919 10.2011 20.0919 9.95533C20.0919 9.83245 20.1203 9.61303 20.1772 9.29707C20.23 9.0206 20.2564 8.82971 20.2564 8.72439C20.2564 8.65418 20.2341 8.61907 20.1894 8.61907C20.1366 8.61907 20.0614 8.69367 19.9639 8.84287C19.8664 8.98769 19.7689 9.18078 19.6714 9.42214C19.5739 9.6635 19.4947 9.91802 19.4338 10.1857C19.3891 10.3964 19.3363 10.5368 19.2753 10.607C19.2184 10.6772 19.125 10.7123 18.995 10.7123C18.8609 10.7123 18.7594 10.6443 18.6903 10.5083C18.6253 10.3678 18.5928 10.1989 18.5928 10.0014C18.5928 9.83465 18.6131 9.59329 18.6537 9.27732C18.6862 8.99647 18.7025 8.81216 18.7025 8.72439C18.7025 8.65418 18.6801 8.61907 18.6355 8.61907C18.5745 8.61907 18.4973 8.69806 18.4039 8.85604C18.3105 9.01402 18.219 9.21589 18.1297 9.46163C18.0444 9.70738 17.9753 9.94874 17.9225 10.1857C17.8778 10.392 17.825 10.5324 17.764 10.607C17.7072 10.6772 17.6158 10.7123 17.4898 10.7123Z" fill="#4E82B5"/>
<path d="M17.3835 9.2115C17.4363 9.2115 17.4769 9.23783 17.5054 9.29049C17.5379 9.34315 17.5541 9.41556 17.5541 9.50771C17.5541 9.68325 17.5155 9.81929 17.4383 9.91583C17.288 10.1133 17.0747 10.2954 16.7985 10.4622C16.5263 10.6289 16.2338 10.7123 15.921 10.7123C15.4944 10.7123 15.1633 10.5872 14.9277 10.3371C14.692 10.087 14.5742 9.74468 14.5742 9.31024C14.5742 9.00744 14.6331 8.72658 14.7509 8.46767C14.8688 8.20437 15.0313 7.99592 15.2384 7.84233C15.4497 7.68873 15.6874 7.61194 15.9514 7.61194C16.1871 7.61194 16.376 7.68873 16.5182 7.84233C16.6604 7.99153 16.7314 8.19559 16.7314 8.4545C16.7314 8.7573 16.6299 9.01841 16.4268 9.23783C16.2277 9.45286 15.8885 9.624 15.4091 9.75127C15.5106 9.95313 15.7036 10.0541 15.988 10.0541C16.1708 10.0541 16.378 9.98604 16.6096 9.85C16.8452 9.70958 17.0483 9.52746 17.219 9.30365C17.2677 9.24222 17.3225 9.2115 17.3835 9.2115ZM15.8478 8.25703C15.6975 8.25703 15.5695 8.35138 15.4639 8.54008C15.3624 8.72878 15.3116 8.95697 15.3116 9.22466V9.23783C15.5513 9.17639 15.7402 9.08423 15.8783 8.96136C16.0164 8.83849 16.0855 8.69586 16.0855 8.5335C16.0855 8.45012 16.0632 8.38429 16.0185 8.33602C15.9778 8.28336 15.921 8.25703 15.8478 8.25703Z" fill="#4E82B5"/>
<path d="M14.9856 9.21259C15.0384 9.21259 15.079 9.23892 15.1075 9.29158C15.14 9.34424 15.1562 9.41665 15.1562 9.5088C15.1562 9.68872 15.1176 9.82696 15.0404 9.9235C14.8536 10.1605 14.6707 10.3514 14.492 10.4962C14.3173 10.641 14.1243 10.7134 13.9131 10.7134C13.6978 10.7134 13.5434 10.6256 13.4499 10.4501C13.3565 10.2746 13.3098 10.02 13.3098 9.68653C13.3098 9.3969 13.3423 9.03486 13.4073 8.60041H13.3951C13.2935 8.78911 13.1981 9.00195 13.1087 9.23892C13.0193 9.47589 12.9198 9.75674 12.8101 10.0815L12.7065 10.3777C12.6618 10.5093 12.609 10.5993 12.5481 10.6476C12.4871 10.6915 12.414 10.7134 12.3287 10.7134C12.2393 10.7134 12.1743 10.6871 12.1337 10.6344C12.093 10.5818 12.0565 10.4984 12.024 10.3843C11.9874 10.2526 11.957 10.0727 11.9326 9.84451C11.9082 9.61193 11.896 9.37715 11.896 9.14018C11.896 8.99536 11.9021 8.85713 11.9143 8.72548H11.9021C11.8005 9.15115 11.701 9.50222 11.6035 9.77869C11.506 10.0508 11.374 10.2746 11.2074 10.4501C11.0408 10.6213 10.8296 10.7068 10.5736 10.7068C10.3583 10.7068 10.1918 10.6256 10.0739 10.4633C9.9602 10.3009 9.90332 10.0968 9.90332 9.85109C9.90332 9.63168 9.95004 9.44956 10.0435 9.30474C10.1369 9.15554 10.269 9.08094 10.4396 9.08094C10.6021 9.08094 10.6833 9.14018 10.6833 9.25866C10.6833 9.28061 10.6813 9.29816 10.6772 9.31133C10.6447 9.52197 10.6285 9.67117 10.6285 9.75894C10.6285 9.90814 10.659 9.98274 10.7199 9.98274C10.7768 9.98274 10.8336 9.93886 10.8905 9.85109C10.9474 9.75894 11.0266 9.56146 11.1282 9.25866C11.2663 8.85055 11.3963 8.43365 11.5182 8.00798C11.5588 7.87194 11.6177 7.7732 11.6949 7.71177C11.7762 7.64594 11.8838 7.61303 12.0179 7.61303C12.1316 7.61303 12.2251 7.63716 12.2982 7.68544C12.3754 7.73371 12.414 7.8127 12.414 7.92241C12.414 8.55872 12.4282 9.04363 12.4566 9.37715H12.4688C12.5379 9.12701 12.6456 8.83958 12.7918 8.51484C12.9381 8.1901 13.0538 7.97726 13.1392 7.87633C13.2163 7.78856 13.2935 7.72274 13.3707 7.67885C13.452 7.63058 13.5414 7.60645 13.6389 7.60645C13.7851 7.60645 13.8846 7.64155 13.9375 7.71177C13.9903 7.77759 14.0167 7.90266 14.0167 8.08697C14.0167 8.1879 14.0146 8.28884 14.0106 8.38977C14.0065 8.48631 14.0025 8.57627 13.9984 8.65965C13.9821 8.98439 13.974 9.22575 13.974 9.38373C13.974 9.63387 13.9903 9.80282 14.0228 9.89059C14.0553 9.97836 14.1162 10.0222 14.2056 10.0222C14.3681 10.0222 14.5732 9.79185 14.8211 9.33107C14.8658 9.25208 14.9206 9.21259 14.9856 9.21259Z" fill="#4E82B5"/>
<path d="M8.47989 10.7131C7.99644 10.7131 7.57596 10.6187 7.21846 10.43C6.86095 10.2369 6.58673 9.96484 6.39579 9.61377C6.20485 9.2627 6.10938 8.85459 6.10938 8.38942C6.10938 7.74433 6.2211 7.17165 6.44454 6.67137C6.67204 6.1711 6.97877 5.78492 7.36471 5.51285C7.75065 5.23638 8.17926 5.09814 8.65051 5.09814C9.08927 5.09814 9.4224 5.22102 9.64991 5.46677C9.87741 5.70813 9.99116 6.02848 9.99116 6.42782C9.99116 6.69551 9.94648 6.91054 9.8571 7.07291C9.77179 7.23528 9.64788 7.31646 9.48537 7.31646C9.37162 7.31646 9.28224 7.28794 9.21724 7.23089C9.15224 7.17384 9.11974 7.09046 9.11974 6.98075C9.11974 6.94126 9.12787 6.86885 9.14412 6.76353C9.16849 6.63188 9.18068 6.52656 9.18068 6.44757C9.18068 6.04823 8.98365 5.84856 8.58958 5.84856C8.32145 5.84856 8.0655 5.9429 7.82175 6.1316C7.578 6.3203 7.38096 6.59897 7.23065 6.96759C7.08033 7.33182 7.00517 7.76627 7.00517 8.27093C7.00517 8.79754 7.14127 9.20565 7.41346 9.49529C7.68565 9.78053 8.08785 9.92315 8.62004 9.92315C8.88411 9.92315 9.15021 9.88805 9.41834 9.81783C9.69053 9.74323 9.99116 9.63133 10.3202 9.48212C10.3812 9.45579 10.432 9.44263 10.4726 9.44263C10.5376 9.44263 10.5863 9.46896 10.6188 9.52162C10.6513 9.57428 10.6676 9.6423 10.6676 9.72568C10.6676 9.99337 10.5335 10.1908 10.2654 10.3181C9.97694 10.4541 9.67631 10.5551 9.3635 10.6209C9.05474 10.6823 8.7602 10.7131 8.47989 10.7131Z" fill="#4E82B5"/>
<path d="M34.7492 7.91785C34.4291 18.0475 33.2176 28.3884 31.4063 38.8661C31.1967 40.0815 30.273 41.0111 29.1272 41.1696C22.8068 42.0369 16.2447 42.068 9.40667 41.152C9.09858 41.112 8.80691 41.0152 8.54048 40.8703C8.54048 40.8703 8.54048 40.8703 8.53606 40.8655C7.82138 40.4871 7.28727 39.7734 7.12312 38.9014C7.04105 38.4653 6.95897 38.0252 6.88068 37.5892C5.06559 27.6843 4.03082 17.7923 3.80859 7.91853H34.7492V7.91785Z" fill="#CCD9EF" stroke="#22498B" stroke-width="0.7"/>
<path d="M37.8607 7.91818H1.65849C0.892672 7.91818 0.385077 5.9953 0.823226 5.32161L3.66551 2.04051C3.84292 1.76833 4.1327 1.60583 4.44269 1.60583H35.0759C35.3858 1.60583 35.6756 1.76833 35.853 2.04051L38.7654 5.49698C39.2035 6.17066 38.6265 7.91818 37.8607 7.91818Z" fill="#22498B"/>
<path d="M37.8583 6.8177H19.7604C19.7604 6.8177 19.547 6.8177 19.1688 6.8177H1.65799C0.890286 6.8177 0.442664 5.89282 0.882076 5.21913L3.66628 0.938005C3.84306 0.669207 4.13474 0.506714 4.4422 0.506714H35.0741C35.386 0.506714 35.6739 0.669884 35.8544 0.938005L38.6386 5.21913C39.0743 5.89282 38.6266 6.8177 37.8583 6.8177Z" fill="#537FCA"/>
<path d="M19.1688 6.8177H1.65799C0.890286 6.8177 0.442664 5.89282 0.882076 5.21913L3.66628 0.938005C3.84306 0.669207 4.13474 0.506714 4.4422 0.506714H13.0499C13.0499 0.506714 5.14425 0.577128 4.30646 0.687491C3.46868 0.797854 0.756443 5.66194 1.27982 5.99032C1.91558 6.38844 16.0228 6.8177 19.1688 6.8177Z" fill="#EDF7FF"/>
<path d="M8.53606 40.8657C7.82139 40.4872 7.28727 39.7736 7.12312 38.9015C7.04105 38.4655 6.95897 38.0254 6.88069 37.5894C5.06559 27.6845 4.03082 17.7925 3.80859 7.9187C5.76006 34.0395 8.45399 40.6633 8.53606 40.8657Z" fill="#E8F2FD"/>
<path d="M14.4765 36.0909C17.9979 36.0909 20.8525 30.9516 20.8525 24.6121C20.8525 18.2725 17.9979 13.1333 14.4765 13.1333C10.9552 13.1333 8.10059 18.2725 8.10059 24.6121C8.10059 30.9516 10.9552 36.0909 14.4765 36.0909Z" fill="#C7D4EB"/>
<path d="M22.2215 3.40294C22.2215 4.15314 18.7125 4.76116 14.3847 4.76116C10.0562 4.76116 6.54785 4.15314 6.54785 3.40294C6.54785 2.65275 10.0568 2.04407 14.3847 2.04407C18.7131 2.04474 22.2215 2.65275 22.2215 3.40294Z" fill="#82A4D9"/>
<path d="M29.3857 24.645C29.1221 24.645 28.9117 24.5417 28.7545 24.3351C28.5972 24.1285 28.5186 23.8576 28.5186 23.5224C28.5186 23.1551 28.5972 22.8084 28.7545 22.4824C28.9117 22.1518 29.12 21.8878 29.3793 21.6904C29.6428 21.4883 29.9213 21.3873 30.2146 21.3873C30.3081 21.3873 30.3697 21.408 30.3995 21.4493C30.4335 21.486 30.4611 21.5549 30.4824 21.6559C30.5716 21.6376 30.6651 21.6284 30.7629 21.6284C30.9712 21.6284 31.0753 21.7087 31.0753 21.8694C31.0753 21.9659 31.0434 22.1954 30.9797 22.5582C30.8819 23.0862 30.833 23.4535 30.833 23.6601C30.833 23.729 30.8479 23.7841 30.8777 23.8254C30.9117 23.8667 30.9542 23.8874 31.0052 23.8874C31.0859 23.8874 31.1837 23.8323 31.2985 23.7221C31.4132 23.6073 31.5684 23.4237 31.7639 23.1711C31.8149 23.1068 31.8723 23.0747 31.9361 23.0747C31.9913 23.0747 32.0338 23.1023 32.0636 23.1574C32.0976 23.2125 32.1146 23.2882 32.1146 23.3846C32.1146 23.5683 32.0742 23.7106 31.9935 23.8116C31.8192 24.0458 31.6343 24.2432 31.4387 24.404C31.2432 24.5647 31.0541 24.645 30.8713 24.645C30.731 24.645 30.6014 24.5945 30.4824 24.4935C30.3676 24.3879 30.2804 24.2455 30.2209 24.0665C29.9999 24.4522 29.7215 24.645 29.3857 24.645ZM29.6152 23.9494C29.7087 23.9494 29.798 23.8897 29.883 23.7703C29.968 23.6509 30.0297 23.4925 30.0679 23.2951L30.3038 22.0278C30.1253 22.0324 29.9595 22.1059 29.8065 22.2482C29.6577 22.386 29.5387 22.5696 29.4494 22.7992C29.3602 23.0288 29.3156 23.2721 29.3156 23.5293C29.3156 23.6716 29.3411 23.7772 29.3921 23.8461C29.4473 23.915 29.5217 23.9494 29.6152 23.9494Z" fill="#1F4A8E"/>
<path d="M28.9426 23.0749C28.9979 23.0749 29.0404 23.1024 29.0701 23.1575C29.1041 23.2126 29.1211 23.2884 29.1211 23.3848C29.1211 23.5684 29.0808 23.7108 29 23.8118C28.8045 24.0551 28.6026 24.2549 28.3943 24.411C28.1903 24.5671 27.9565 24.6451 27.6929 24.6451C27.4719 24.6451 27.3168 24.5717 27.2275 24.4248C27.1382 24.2778 27.0936 24.0574 27.0936 23.7636C27.0936 23.6396 27.1042 23.4904 27.1255 23.3159C26.7514 23.3159 26.4921 23.3113 26.3476 23.3021C26.3391 23.4307 26.3349 23.5202 26.3349 23.5707V23.7154C26.3306 24 26.3242 24.1998 26.3157 24.3146C26.3072 24.4293 26.2817 24.5143 26.2392 24.5694C26.1967 24.6199 26.1266 24.6451 26.0288 24.6451C25.8673 24.6451 25.7525 24.5533 25.6845 24.3697C25.6207 24.186 25.5889 23.8921 25.5889 23.4881C25.5889 22.8912 25.6675 22.3241 25.8248 21.7869C25.863 21.6538 25.9247 21.5574 26.0097 21.4977C26.0947 21.4334 26.218 21.4012 26.3795 21.4012C26.4645 21.4012 26.524 21.4127 26.558 21.4357C26.592 21.4586 26.609 21.5023 26.609 21.5665C26.609 21.64 26.5771 21.8053 26.5134 22.0624C26.4794 22.2139 26.4475 22.3976 26.4177 22.6134H27.2339C27.2764 22.3976 27.338 22.1221 27.4188 21.7869C27.4528 21.6492 27.5038 21.5505 27.5718 21.4908C27.6441 21.4311 27.7503 21.4012 27.8906 21.4012C27.9884 21.4012 28.0564 21.415 28.0946 21.4426C28.1329 21.4655 28.152 21.5114 28.152 21.5803C28.152 21.6951 28.0989 22.0096 27.9926 22.5239C27.8736 23.1116 27.8141 23.4743 27.8141 23.6121C27.8141 23.6993 27.8311 23.7682 27.8651 23.8187C27.8991 23.8646 27.9437 23.8875 27.999 23.8875C28.084 23.8875 28.1839 23.8325 28.2986 23.7223C28.4177 23.6075 28.5749 23.4238 28.7705 23.1713C28.8215 23.107 28.8789 23.0749 28.9426 23.0749Z" fill="#1F4A8E"/>
<path d="M23.3662 24.645C23.1026 24.645 22.8922 24.5417 22.7349 24.3351C22.5777 24.1285 22.499 23.8576 22.499 23.5224C22.499 23.1551 22.5777 22.8084 22.7349 22.4824C22.8922 22.1518 23.1005 21.8878 23.3598 21.6904C23.6233 21.4883 23.9017 21.3873 24.195 21.3873C24.2885 21.3873 24.3502 21.408 24.3799 21.4493C24.4139 21.486 24.4416 21.5549 24.4628 21.6559C24.5521 21.6376 24.6456 21.6284 24.7434 21.6284C24.9516 21.6284 25.0558 21.7087 25.0558 21.8694C25.0558 21.9659 25.0239 22.1954 24.9601 22.5582C24.8624 23.0862 24.8135 23.4535 24.8135 23.6601C24.8135 23.729 24.8284 23.7841 24.8581 23.8254C24.8921 23.8667 24.9346 23.8874 24.9856 23.8874C25.0664 23.8874 25.1642 23.8323 25.2789 23.7221C25.3937 23.6073 25.5489 23.4237 25.7444 23.1711C25.7954 23.1068 25.8528 23.0747 25.9165 23.0747C25.9718 23.0747 26.0143 23.1023 26.0441 23.1574C26.0781 23.2125 26.0951 23.2882 26.0951 23.3846C26.0951 23.5683 26.0547 23.7106 25.9739 23.8116C25.7996 24.0458 25.6147 24.2432 25.4192 24.404C25.2237 24.5647 25.0345 24.645 24.8518 24.645C24.7115 24.645 24.5818 24.5945 24.4628 24.4935C24.3481 24.3879 24.2609 24.2455 24.2014 24.0665C23.9804 24.4522 23.702 24.645 23.3662 24.645ZM23.5957 23.9494C23.6892 23.9494 23.7785 23.8897 23.8635 23.7703C23.9485 23.6509 24.0101 23.4925 24.0484 23.2951L24.2843 22.0278C24.1058 22.0324 23.94 22.1059 23.787 22.2482C23.6382 22.386 23.5192 22.5696 23.4299 22.7992C23.3407 23.0288 23.296 23.2721 23.296 23.5293C23.296 23.6716 23.3215 23.7772 23.3725 23.8461C23.4278 23.915 23.5022 23.9494 23.5957 23.9494Z" fill="#1F4A8E"/>
<path d="M18.2895 24.6451C18.128 24.6451 18.0133 24.5533 17.9452 24.3697C17.8815 24.186 17.8496 23.8921 17.8496 23.4881C17.8496 22.8912 17.9282 22.3241 18.0855 21.7869C18.1238 21.6538 18.1854 21.5574 18.2704 21.4977C18.3597 21.4334 18.483 21.4012 18.6402 21.4012C18.7252 21.4012 18.7847 21.4127 18.8188 21.4357C18.8528 21.4586 18.8698 21.5023 18.8698 21.5665C18.8698 21.64 18.8379 21.8053 18.7741 22.0624C18.7316 22.2461 18.6976 22.4068 18.6721 22.5445C18.6466 22.6777 18.6254 22.8453 18.6083 23.0473C18.7231 22.6892 18.8591 22.3861 19.0164 22.1382C19.1779 21.8902 19.3416 21.7066 19.5074 21.5872C19.6774 21.4632 19.8368 21.4012 19.9856 21.4012C20.1343 21.4012 20.2385 21.438 20.298 21.5114C20.3617 21.5849 20.3936 21.6974 20.3936 21.8489C20.3936 21.9958 20.3532 22.2622 20.2725 22.6478C20.2385 22.8131 20.2151 22.9371 20.2023 23.0198C20.4149 22.455 20.6508 22.0441 20.9101 21.7869C21.1694 21.5298 21.4116 21.4012 21.6369 21.4012C21.9132 21.4012 22.0514 21.5505 22.0514 21.8489C22.0514 22.028 22.0046 22.3517 21.9111 22.82C21.8303 23.2195 21.79 23.4835 21.79 23.6121C21.79 23.7957 21.8516 23.8875 21.9749 23.8875C22.0599 23.8875 22.1598 23.8325 22.2745 23.7223C22.3935 23.6075 22.5508 23.4238 22.7463 23.1713C22.7974 23.107 22.8547 23.0749 22.9185 23.0749C22.9738 23.0749 23.0163 23.1024 23.046 23.1575C23.08 23.2126 23.097 23.2884 23.097 23.3848C23.097 23.5684 23.0566 23.7108 22.9759 23.8118C22.7931 24.0551 22.5954 24.2549 22.3829 24.411C22.1746 24.5671 21.9366 24.6451 21.6688 24.6451C21.452 24.6451 21.2884 24.5786 21.1779 24.4454C21.0673 24.3077 21.0121 24.1102 21.0121 23.8531C21.0121 23.7246 21.0418 23.495 21.1013 23.1644C21.1566 22.8751 21.1842 22.6754 21.1842 22.5652C21.1842 22.4917 21.1609 22.455 21.1141 22.455C21.0588 22.455 20.9802 22.5331 20.8782 22.6892C20.7762 22.8407 20.6742 23.0427 20.5721 23.2952C20.4701 23.5478 20.3872 23.8141 20.3235 24.0942C20.2767 24.3146 20.2215 24.4615 20.1577 24.535C20.0982 24.6084 20.0004 24.6451 19.8644 24.6451C19.7241 24.6451 19.6179 24.574 19.5456 24.4316C19.4776 24.2847 19.4436 24.1079 19.4436 23.9013C19.4436 23.7268 19.4649 23.4743 19.5074 23.1437C19.5414 22.8499 19.5584 22.657 19.5584 22.5652C19.5584 22.4917 19.535 22.455 19.4882 22.455C19.4245 22.455 19.3437 22.5376 19.2459 22.7029C19.1482 22.8682 19.0525 23.0794 18.959 23.3366C18.8698 23.5937 18.7975 23.8462 18.7422 24.0942C18.6955 24.31 18.6402 24.4569 18.5765 24.535C18.517 24.6084 18.4213 24.6451 18.2895 24.6451Z" fill="#1F4A8E"/>
<path d="M18.1796 23.0749C18.2348 23.0749 18.2773 23.1024 18.3071 23.1575C18.3411 23.2126 18.3581 23.2884 18.3581 23.3848C18.3581 23.5684 18.3177 23.7108 18.2369 23.8118C18.0797 24.0184 17.8565 24.209 17.5675 24.3834C17.2827 24.5579 16.9766 24.6451 16.6493 24.6451C16.203 24.6451 15.8566 24.5143 15.61 24.2526C15.3635 23.9909 15.2402 23.6327 15.2402 23.1782C15.2402 22.8613 15.3019 22.5675 15.4251 22.2966C15.5484 22.0211 15.7184 21.803 15.9352 21.6423C16.1562 21.4816 16.4049 21.4012 16.6812 21.4012C16.9277 21.4012 17.1254 21.4816 17.2742 21.6423C17.4229 21.7984 17.4973 22.0119 17.4973 22.2828C17.4973 22.5996 17.3911 22.8728 17.1785 23.1024C16.9702 23.3274 16.6153 23.5065 16.1137 23.6396C16.22 23.8508 16.4219 23.9564 16.7195 23.9564C16.9107 23.9564 17.1275 23.8853 17.3698 23.7429C17.6163 23.596 17.8289 23.4054 18.0074 23.1713C18.0584 23.107 18.1158 23.0749 18.1796 23.0749ZM16.5728 22.0762C16.4155 22.0762 16.2816 22.1749 16.1711 22.3723C16.0649 22.5698 16.0117 22.8085 16.0117 23.0886V23.1024C16.2625 23.0381 16.4602 22.9417 16.6047 22.8131C16.7492 22.6846 16.8215 22.5353 16.8215 22.3655C16.8215 22.2782 16.7981 22.2094 16.7513 22.1588C16.7088 22.1037 16.6493 22.0762 16.5728 22.0762Z" fill="#1F4A8E"/>
<path d="M15.6711 23.0751C15.7263 23.0751 15.7688 23.1027 15.7986 23.1578C15.8326 23.2129 15.8496 23.2887 15.8496 23.3851C15.8496 23.5733 15.8092 23.718 15.7284 23.819C15.5329 24.0669 15.3416 24.2666 15.1546 24.4182C14.9718 24.5697 14.7699 24.6454 14.5489 24.6454C14.3236 24.6454 14.1621 24.5536 14.0643 24.37C13.9666 24.1863 13.9177 23.92 13.9177 23.571C13.9177 23.268 13.9517 22.8892 14.0197 22.4346H14.0069C13.9007 22.6321 13.8008 22.8548 13.7073 23.1027C13.6138 23.3506 13.5096 23.6445 13.3948 23.9843L13.2865 24.2942C13.2397 24.4319 13.1844 24.5261 13.1207 24.5766C13.0569 24.6225 12.9804 24.6454 12.8911 24.6454C12.7976 24.6454 12.7296 24.6179 12.6871 24.5628C12.6446 24.5077 12.6064 24.4205 12.5723 24.3011C12.5341 24.1633 12.5022 23.9751 12.4767 23.7363C12.4512 23.493 12.4385 23.2473 12.4385 22.9994C12.4385 22.8479 12.4448 22.7032 12.4576 22.5655H12.4448C12.3386 23.0109 12.2344 23.3782 12.1324 23.6675C12.0304 23.9521 11.8922 24.1863 11.718 24.37C11.5437 24.549 11.3227 24.6386 11.0549 24.6386C10.8296 24.6386 10.6553 24.5536 10.532 24.3837C10.413 24.2138 10.3535 24.0003 10.3535 23.7432C10.3535 23.5136 10.4024 23.3231 10.5002 23.1716C10.5979 23.0155 10.7361 22.9374 10.9146 22.9374C11.0846 22.9374 11.1696 22.9994 11.1696 23.1234C11.1696 23.1463 11.1675 23.1647 11.1633 23.1785C11.1293 23.3988 11.1123 23.555 11.1123 23.6468C11.1123 23.8029 11.1441 23.881 11.2079 23.881C11.2674 23.881 11.3269 23.835 11.3864 23.7432C11.4459 23.6468 11.5288 23.4402 11.6351 23.1234C11.7796 22.6963 11.9156 22.2602 12.0431 21.8148C12.0857 21.6724 12.1473 21.5691 12.228 21.5048C12.3131 21.436 12.4257 21.4015 12.566 21.4015C12.685 21.4015 12.7828 21.4268 12.8593 21.4773C12.94 21.5278 12.9804 21.6105 12.9804 21.7252C12.9804 22.391 12.9953 22.8984 13.025 23.2473H13.0378C13.1101 22.9856 13.2227 22.6849 13.3757 22.3451C13.5287 22.0053 13.6499 21.7826 13.7391 21.677C13.8199 21.5852 13.9007 21.5163 13.9814 21.4704C14.0664 21.4199 14.16 21.3947 14.262 21.3947C14.415 21.3947 14.5191 21.4314 14.5744 21.5048C14.6297 21.5737 14.6573 21.7046 14.6573 21.8974C14.6573 22.003 14.6552 22.1086 14.6509 22.2142C14.6467 22.3153 14.6424 22.4094 14.6382 22.4966C14.6212 22.8364 14.6127 23.0889 14.6127 23.2542C14.6127 23.5159 14.6297 23.6927 14.6637 23.7845C14.6977 23.8764 14.7614 23.9223 14.8549 23.9223C15.025 23.9223 15.2396 23.6812 15.4989 23.1991C15.5457 23.1165 15.6031 23.0751 15.6711 23.0751Z" fill="#1F4A8E"/>
<path d="M8.86306 24.6458C8.35723 24.6458 7.91729 24.5471 7.54324 24.3497C7.16918 24.1477 6.88226 23.863 6.68248 23.4957C6.4827 23.1283 6.38281 22.7013 6.38281 22.2146C6.38281 21.5397 6.49971 20.9405 6.73349 20.4171C6.97153 19.8936 7.29245 19.4896 7.69626 19.2049C8.10007 18.9156 8.54851 18.771 9.04159 18.771C9.50066 18.771 9.84921 18.8996 10.0872 19.1567C10.3253 19.4092 10.4443 19.7444 10.4443 20.1622C10.4443 20.4423 10.3975 20.6673 10.304 20.8372C10.2148 21.0071 10.0851 21.092 9.91509 21.092C9.79607 21.092 9.70256 21.0622 9.63455 21.0025C9.56654 20.9428 9.53254 20.8555 9.53254 20.7408C9.53254 20.6994 9.54104 20.6237 9.55804 20.5135C9.58354 20.3757 9.59629 20.2655 9.59629 20.1829C9.59629 19.7651 9.39014 19.5561 8.97783 19.5561C8.69729 19.5561 8.42949 19.6549 8.17446 19.8523C7.91942 20.0497 7.71326 20.3413 7.55599 20.727C7.39872 21.1081 7.32008 21.5626 7.32008 22.0907C7.32008 22.6416 7.46247 23.0687 7.74727 23.3717C8.03206 23.6701 8.45287 23.8194 9.00971 23.8194C9.286 23.8194 9.56441 23.7826 9.84496 23.7092C10.1298 23.6311 10.4443 23.514 10.7886 23.3579C10.8524 23.3304 10.9055 23.3166 10.948 23.3166C11.016 23.3166 11.067 23.3441 11.101 23.3992C11.135 23.4543 11.152 23.5255 11.152 23.6127C11.152 23.8928 11.0118 24.0994 10.7312 24.2326C10.4294 24.3749 10.1149 24.4805 9.78757 24.5494C9.46453 24.6137 9.15635 24.6458 8.86306 24.6458Z" fill="#1F4A8E"/>
</svg>
