<svg width="48" height="49" viewBox="0 0 48 49" fill="none" xmlns="http://www.w3.org/2000/svg">
<path d="M47.9994 24.2397C47.9994 45.5994 37.6795 48.9594 21.1197 48.9594C12.9598 48.9594 0 37.4943 0 24.2397C0 4.55994 15.065 0 28.3196 0C41.5743 0 47.9994 10.985 47.9994 24.2397Z" fill="#E6C99E"/>
<path d="M46.5594 23.534C46.5594 43.6372 36.7555 46.7995 21.0237 46.7995C13.2718 46.7995 0.959961 36.0089 0.959961 23.534C0.959961 5.01186 15.2717 0.720154 27.8636 0.720154C40.4555 0.720154 46.5594 11.059 46.5594 23.534Z" fill="#EAD2B0"/>
<path d="M18.3344 35.9095C17.2169 38.1279 16.8435 38.8692 12.655 36.7595C9.72306 35.2826 9.25877 34.1194 10.3762 31.9009C12.293 28.0956 15.9593 29.9423 18.1569 31.0493C20.3545 32.1562 19.8252 32.9498 18.3344 35.9095Z" fill="#E1BD9B"/>
<path d="M17.6036 35.4696C16.5519 37.5576 16.2005 38.2553 12.221 36.2508C9.43541 34.8477 8.99096 33.7491 10.0427 31.6611C11.8467 28.0796 15.33 29.8342 17.4179 30.8859C19.5058 31.9376 19.0068 32.684 17.6036 35.4696Z" fill="#996A4D"/>
<path d="M16.6173 35.1052C15.7204 36.8858 15.4207 37.4808 11.9095 35.7121C9.45157 34.4741 9.04903 33.5253 9.9459 31.7448C11.4844 28.6905 14.5579 30.2386 16.4001 31.1666C18.2424 32.0945 17.8139 32.7296 16.6173 35.1052Z" fill="#A97C60"/>
<path d="M18.2386 15.3898C18.2386 18.0656 18.2386 18.9598 13.1865 18.9598C9.65006 18.9598 8.63965 18.0656 8.63965 15.3898C8.63965 10.7999 13.0619 10.7999 15.7126 10.7999C18.3632 10.7999 18.2386 11.8199 18.2386 15.3898Z" fill="#E1BD9B"/>
<path d="M17.7595 15.1198C17.7595 17.6382 17.7595 18.4798 12.9596 18.4798C9.59964 18.4798 8.63965 17.6382 8.63965 15.1198C8.63965 10.7999 12.8412 10.7999 15.3596 10.7999C17.8779 10.7999 17.7595 11.7599 17.7595 15.1198Z" fill="#996A4D"/>
<path d="M16.7988 14.5798C16.7988 16.7834 16.7988 17.5198 12.5045 17.5198C9.4985 17.5198 8.63965 16.7834 8.63965 14.5798C8.63965 10.7999 12.3985 10.7999 14.6516 10.7999C16.9047 10.7999 16.7988 11.6399 16.7988 14.5798Z" fill="#A97C60"/>
<path d="M39.8383 35.0095C39.8383 37.3705 39.8383 38.1595 35.2914 38.1595C32.1086 38.1595 31.1992 37.3705 31.1992 35.0095C31.1992 30.9596 35.1792 30.9596 37.5648 30.9596C39.9504 30.9596 39.8383 31.8596 39.8383 35.0095Z" fill="#E1BD9B"/>
<path d="M39.3583 34.7395C39.3583 36.9431 39.3583 37.6795 35.0641 37.6795C32.0581 37.6795 31.1992 36.9431 31.1992 34.7395C31.1992 30.9596 34.9581 30.9596 37.2112 30.9596C39.4643 30.9596 39.3583 31.7996 39.3583 34.7395Z" fill="#996A4D"/>
<path d="M38.3994 34.2C38.3994 36.089 38.3994 36.7203 34.6098 36.7203C31.9571 36.7203 31.1992 36.089 31.1992 34.2C31.1992 30.9596 34.5163 30.9596 36.5046 30.9596C38.4929 30.9596 38.3994 31.6797 38.3994 34.2Z" fill="#A97C60"/>
<path d="M38.3319 14.1787C37.2146 16.6101 36.8412 17.4225 32.2507 15.313C29.0373 13.8363 28.4925 12.6019 29.6098 10.1706C31.5264 5.99994 35.5446 7.84648 37.9532 8.95329C40.3617 10.0601 39.8226 10.9349 38.3319 14.1787Z" fill="#E1BD9B"/>
<path d="M37.5288 13.7333C36.4773 16.0217 36.1259 16.7864 31.7644 14.7821C28.7114 13.3791 28.1905 12.2136 29.2421 9.92526C31.0459 5.99994 34.8636 7.75432 37.1519 8.80589C39.4403 9.85747 38.9318 10.6803 37.5288 13.7333Z" fill="#996A4D"/>
<path d="M36.4522 13.3791C35.5554 15.3306 35.2558 15.9827 31.4074 14.2143C28.7136 12.9764 28.2436 11.9706 29.1404 10.0191C30.6787 6.67157 34.0473 8.21954 36.0664 9.14739C38.0855 10.0752 37.6487 10.7755 36.4522 13.3791Z" fill="#A97C60"/>
<path d="M22.9464 21.8883C24.0111 19.6967 24.3669 18.9643 28.488 20.9828C31.3728 22.3957 31.8413 23.5318 30.7766 25.7234C28.9502 29.4828 25.3428 27.716 23.1806 26.657C21.0184 25.5979 21.5259 24.8123 22.9464 21.8883Z" fill="#E1BD9B"/>
<path d="M22.8479 21.7121C23.85 19.6494 24.1849 18.9601 28.1003 20.8778C30.8411 22.2202 31.2894 23.293 30.2873 25.3557C28.5684 28.894 25.1411 27.2154 23.0867 26.2092C21.0324 25.2031 21.511 24.4641 22.8479 21.7121Z" fill="#996A4D"/>
<path d="M23.0515 21.3063C23.9062 19.547 24.1918 18.9591 27.6471 20.6514C30.0657 21.836 30.4712 22.7624 29.6165 24.5217C28.1504 27.5396 25.1259 26.0582 23.313 25.1703C21.5002 24.2824 21.9112 23.6535 23.0515 21.3063Z" fill="#A97C60"/>
<circle cx="25.68" cy="38.8795" r="0.720088" fill="#E6C99E"/>
<circle cx="34.7992" cy="20.6399" r="0.720088" fill="#E6C99E"/>
<circle cx="27.6" cy="11.52" r="0.720088" fill="#E6C99E"/>
<circle cx="21.8392" cy="6.23999" r="0.720088" fill="#E6C99E"/>
<circle cx="13.68" cy="23.9998" r="0.720088" fill="#E6C99E"/>
<circle cx="8.40034" cy="22.5599" r="1.20015" fill="#E6C99E"/>
<circle cx="21.8408" cy="41.2796" r="1.20015" fill="#E6C99E"/>
<circle cx="39.1201" cy="23.0398" r="1.20015" fill="#E6C99E"/>
<circle cx="23.2802" cy="11.04" r="1.20015" fill="#E6C99E"/>
</svg>
